<svg xmlns="http://www.w3.org/2000/svg" width="1536" height="686" style="cursor: move; touch-action: none; -webkit-tap-highlight-color: rgba(0, 0, 0, 0);"><g><path class="link" marker-end="" d="M558,38.5, 788,246" style="stroke-width: 0.43; stroke-opacity: 0.99; stroke: rgb(80, 80, 80);"></path><path class="link" marker-end="" d="M558,38.5, 788,333" style="stroke-width: 0.43; stroke-opacity: 0.99; stroke: rgb(80, 80, 80);"></path><path class="link" marker-end="" d="M558,38.5, 788,420" style="stroke-width: 0.43; stroke-opacity: 0.99; stroke: rgb(80, 80, 80);"></path><path class="link" marker-end="" d="M558,38.5, 788,507" style="stroke-width: 0.43; stroke-opacity: 0.99; stroke: rgb(80, 80, 80);"></path><path class="link" marker-end="" d="M558,69.5, 788,246" style="stroke-width: 0.43; stroke-opacity: 0.99; stroke: rgb(80, 80, 80);"></path><path class="link" marker-end="" d="M558,69.5, 788,333" style="stroke-width: 0.43; stroke-opacity: 0.99; stroke: rgb(80, 80, 80);"></path><path class="link" marker-end="" d="M558,69.5, 788,420" style="stroke-width: 0.43; stroke-opacity: 0.99; stroke: rgb(80, 80, 80);"></path><path class="link" marker-end="" d="M558,69.5, 788,507" style="stroke-width: 0.43; stroke-opacity: 0.99; stroke: rgb(80, 80, 80);"></path><path class="link" marker-end="" d="M558,100.5, 788,246" style="stroke-width: 0.43; stroke-opacity: 0.99; stroke: rgb(80, 80, 80);"></path><path class="link" marker-end="" d="M558,100.5, 788,333" style="stroke-width: 0.43; stroke-opacity: 0.99; stroke: rgb(80, 80, 80);"></path><path class="link" marker-end="" d="M558,100.5, 788,420" style="stroke-width: 0.43; stroke-opacity: 0.99; stroke: rgb(80, 80, 80);"></path><path class="link" marker-end="" d="M558,100.5, 788,507" style="stroke-width: 0.43; stroke-opacity: 0.99; stroke: rgb(80, 80, 80);"></path><path class="link" marker-end="" d="M558,131.5, 788,246" style="stroke-width: 0.43; stroke-opacity: 0.99; stroke: rgb(80, 80, 80);"></path><path class="link" marker-end="" d="M558,131.5, 788,333" style="stroke-width: 0.43; stroke-opacity: 0.99; stroke: rgb(80, 80, 80);"></path><path class="link" marker-end="" d="M558,131.5, 788,420" style="stroke-width: 0.43; stroke-opacity: 0.99; stroke: rgb(80, 80, 80);"></path><path class="link" marker-end="" d="M558,131.5, 788,507" style="stroke-width: 0.43; stroke-opacity: 0.99; stroke: rgb(80, 80, 80);"></path><path class="link" marker-end="" d="M558,162.5, 788,246" style="stroke-width: 0.43; stroke-opacity: 0.99; stroke: rgb(80, 80, 80);"></path><path class="link" marker-end="" d="M558,162.5, 788,333" style="stroke-width: 0.43; stroke-opacity: 0.99; stroke: rgb(80, 80, 80);"></path><path class="link" marker-end="" d="M558,162.5, 788,420" style="stroke-width: 0.43; stroke-opacity: 0.99; stroke: rgb(80, 80, 80);"></path><path class="link" marker-end="" d="M558,162.5, 788,507" style="stroke-width: 0.43; stroke-opacity: 0.99; stroke: rgb(80, 80, 80);"></path><path class="link" marker-end="" d="M558,193.5, 788,246" style="stroke-width: 0.43; stroke-opacity: 0.99; stroke: rgb(80, 80, 80);"></path><path class="link" marker-end="" d="M558,193.5, 788,333" style="stroke-width: 0.43; stroke-opacity: 0.99; stroke: rgb(80, 80, 80);"></path><path class="link" marker-end="" d="M558,193.5, 788,420" style="stroke-width: 0.43; stroke-opacity: 0.99; stroke: rgb(80, 80, 80);"></path><path class="link" marker-end="" d="M558,193.5, 788,507" style="stroke-width: 0.43; stroke-opacity: 0.99; stroke: rgb(80, 80, 80);"></path><path class="link" marker-end="" d="M558,224.5, 788,246" style="stroke-width: 0.43; stroke-opacity: 0.99; stroke: rgb(80, 80, 80);"></path><path class="link" marker-end="" d="M558,224.5, 788,333" style="stroke-width: 0.43; stroke-opacity: 0.99; stroke: rgb(80, 80, 80);"></path><path class="link" marker-end="" d="M558,224.5, 788,420" style="stroke-width: 0.43; stroke-opacity: 0.99; stroke: rgb(80, 80, 80);"></path><path class="link" marker-end="" d="M558,224.5, 788,507" style="stroke-width: 0.43; stroke-opacity: 0.99; stroke: rgb(80, 80, 80);"></path><path class="link" marker-end="" d="M558,255.5, 788,246" style="stroke-width: 0.43; stroke-opacity: 0.99; stroke: rgb(80, 80, 80);"></path><path class="link" marker-end="" d="M558,255.5, 788,333" style="stroke-width: 0.43; stroke-opacity: 0.99; stroke: rgb(80, 80, 80);"></path><path class="link" marker-end="" d="M558,255.5, 788,420" style="stroke-width: 0.43; stroke-opacity: 0.99; stroke: rgb(80, 80, 80);"></path><path class="link" marker-end="" d="M558,255.5, 788,507" style="stroke-width: 0.43; stroke-opacity: 0.99; stroke: rgb(80, 80, 80);"></path><path class="link" marker-end="" d="M558,286.5, 788,246" style="stroke-width: 0.43; stroke-opacity: 0.99; stroke: rgb(80, 80, 80);"></path><path class="link" marker-end="" d="M558,286.5, 788,333" style="stroke-width: 0.43; stroke-opacity: 0.99; stroke: rgb(80, 80, 80);"></path><path class="link" marker-end="" d="M558,286.5, 788,420" style="stroke-width: 0.43; stroke-opacity: 0.99; stroke: rgb(80, 80, 80);"></path><path class="link" marker-end="" d="M558,286.5, 788,507" style="stroke-width: 0.43; stroke-opacity: 0.99; stroke: rgb(80, 80, 80);"></path><path class="link" marker-end="" d="M558,317.5, 788,246" style="stroke-width: 0.43; stroke-opacity: 0.99; stroke: rgb(80, 80, 80);"></path><path class="link" marker-end="" d="M558,317.5, 788,333" style="stroke-width: 0.43; stroke-opacity: 0.99; stroke: rgb(80, 80, 80);"></path><path class="link" marker-end="" d="M558,317.5, 788,420" style="stroke-width: 0.43; stroke-opacity: 0.99; stroke: rgb(80, 80, 80);"></path><path class="link" marker-end="" d="M558,317.5, 788,507" style="stroke-width: 0.43; stroke-opacity: 0.99; stroke: rgb(80, 80, 80);"></path><path class="link" marker-end="" d="M558,348.5, 788,246" style="stroke-width: 0.43; stroke-opacity: 0.99; stroke: rgb(80, 80, 80);"></path><path class="link" marker-end="" d="M558,348.5, 788,333" style="stroke-width: 0.43; stroke-opacity: 0.99; stroke: rgb(80, 80, 80);"></path><path class="link" marker-end="" d="M558,348.5, 788,420" style="stroke-width: 0.43; stroke-opacity: 0.99; stroke: rgb(80, 80, 80);"></path><path class="link" marker-end="" d="M558,348.5, 788,507" style="stroke-width: 0.43; stroke-opacity: 0.99; stroke: rgb(80, 80, 80);"></path><path class="link" marker-end="" d="M558,379.5, 788,246" style="stroke-width: 0.43; stroke-opacity: 0.99; stroke: rgb(80, 80, 80);"></path><path class="link" marker-end="" d="M558,379.5, 788,333" style="stroke-width: 0.43; stroke-opacity: 0.99; stroke: rgb(80, 80, 80);"></path><path class="link" marker-end="" d="M558,379.5, 788,420" style="stroke-width: 0.43; stroke-opacity: 0.99; stroke: rgb(80, 80, 80);"></path><path class="link" marker-end="" d="M558,379.5, 788,507" style="stroke-width: 0.43; stroke-opacity: 0.99; stroke: rgb(80, 80, 80);"></path><path class="link" marker-end="" d="M558,410.5, 788,246" style="stroke-width: 0.43; stroke-opacity: 0.99; stroke: rgb(80, 80, 80);"></path><path class="link" marker-end="" d="M558,410.5, 788,333" style="stroke-width: 0.43; stroke-opacity: 0.99; stroke: rgb(80, 80, 80);"></path><path class="link" marker-end="" d="M558,410.5, 788,420" style="stroke-width: 0.43; stroke-opacity: 0.99; stroke: rgb(80, 80, 80);"></path><path class="link" marker-end="" d="M558,410.5, 788,507" style="stroke-width: 0.43; stroke-opacity: 0.99; stroke: rgb(80, 80, 80);"></path><path class="link" marker-end="" d="M558,441.5, 788,246" style="stroke-width: 0.43; stroke-opacity: 0.99; stroke: rgb(80, 80, 80);"></path><path class="link" marker-end="" d="M558,441.5, 788,333" style="stroke-width: 0.43; stroke-opacity: 0.99; stroke: rgb(80, 80, 80);"></path><path class="link" marker-end="" d="M558,441.5, 788,420" style="stroke-width: 0.43; stroke-opacity: 0.99; stroke: rgb(80, 80, 80);"></path><path class="link" marker-end="" d="M558,441.5, 788,507" style="stroke-width: 0.43; stroke-opacity: 0.99; stroke: rgb(80, 80, 80);"></path><path class="link" marker-end="" d="M558,472.5, 788,246" style="stroke-width: 0.43; stroke-opacity: 0.99; stroke: rgb(80, 80, 80);"></path><path class="link" marker-end="" d="M558,472.5, 788,333" style="stroke-width: 0.43; stroke-opacity: 0.99; stroke: rgb(80, 80, 80);"></path><path class="link" marker-end="" d="M558,472.5, 788,420" style="stroke-width: 0.43; stroke-opacity: 0.99; stroke: rgb(80, 80, 80);"></path><path class="link" marker-end="" d="M558,472.5, 788,507" style="stroke-width: 0.43; stroke-opacity: 0.99; stroke: rgb(80, 80, 80);"></path><path class="link" marker-end="" d="M558,503.5, 788,246" style="stroke-width: 0.43; stroke-opacity: 0.99; stroke: rgb(80, 80, 80);"></path><path class="link" marker-end="" d="M558,503.5, 788,333" style="stroke-width: 0.43; stroke-opacity: 0.99; stroke: rgb(80, 80, 80);"></path><path class="link" marker-end="" d="M558,503.5, 788,420" style="stroke-width: 0.43; stroke-opacity: 0.99; stroke: rgb(80, 80, 80);"></path><path class="link" marker-end="" d="M558,503.5, 788,507" style="stroke-width: 0.43; stroke-opacity: 0.99; stroke: rgb(80, 80, 80);"></path><path class="link" marker-end="" d="M788,159, 1018,268" style="stroke-width: 0.43; stroke-opacity: 0.99; stroke: rgb(80, 80, 80);"></path><path class="link" marker-end="" d="M788,159, 1018,333" style="stroke-width: 0.43; stroke-opacity: 0.99; stroke: rgb(80, 80, 80);"></path><path class="link" marker-end="" d="M788,159, 1018,398" style="stroke-width: 0.43; stroke-opacity: 0.99; stroke: rgb(80, 80, 80);"></path><path class="link" marker-end="" d="M788,246, 1018,268" style="stroke-width: 0.43; stroke-opacity: 0.99; stroke: rgb(80, 80, 80);"></path><path class="link" marker-end="" d="M788,246, 1018,333" style="stroke-width: 0.43; stroke-opacity: 0.99; stroke: rgb(80, 80, 80);"></path><path class="link" marker-end="" d="M788,246, 1018,398" style="stroke-width: 0.43; stroke-opacity: 0.99; stroke: rgb(80, 80, 80);"></path><path class="link" marker-end="" d="M788,333, 1018,268" style="stroke-width: 0.43; stroke-opacity: 0.99; stroke: rgb(80, 80, 80);"></path><path class="link" marker-end="" d="M788,333, 1018,333" style="stroke-width: 0.43; stroke-opacity: 0.99; stroke: rgb(80, 80, 80);"></path><path class="link" marker-end="" d="M788,333, 1018,398" style="stroke-width: 0.43; stroke-opacity: 0.99; stroke: rgb(80, 80, 80);"></path><path class="link" marker-end="" d="M788,420, 1018,268" style="stroke-width: 0.43; stroke-opacity: 0.99; stroke: rgb(80, 80, 80);"></path><path class="link" marker-end="" d="M788,420, 1018,333" style="stroke-width: 0.43; stroke-opacity: 0.99; stroke: rgb(80, 80, 80);"></path><path class="link" marker-end="" d="M788,420, 1018,398" style="stroke-width: 0.43; stroke-opacity: 0.99; stroke: rgb(80, 80, 80);"></path><path class="link" marker-end="" d="M788,507, 1018,268" style="stroke-width: 0.43; stroke-opacity: 0.99; stroke: rgb(80, 80, 80);"></path><path class="link" marker-end="" d="M788,507, 1018,333" style="stroke-width: 0.43; stroke-opacity: 0.99; stroke: rgb(80, 80, 80);"></path><path class="link" marker-end="" d="M788,507, 1018,398" style="stroke-width: 0.43; stroke-opacity: 0.99; stroke: rgb(80, 80, 80);"></path><path class="link" marker-end="" d="M558,534.5, 788,246" style="stroke-width: 0.43; stroke-opacity: 0.99; stroke: rgb(80, 80, 80);"></path><path class="link" marker-end="" d="M558,534.5, 788,333" style="stroke-width: 0.43; stroke-opacity: 0.99; stroke: rgb(80, 80, 80);"></path><path class="link" marker-end="" d="M558,534.5, 788,420" style="stroke-width: 0.43; stroke-opacity: 0.99; stroke: rgb(80, 80, 80);"></path><path class="link" marker-end="" d="M558,534.5, 788,507" style="stroke-width: 0.43; stroke-opacity: 0.99; stroke: rgb(80, 80, 80);"></path><path class="link" marker-end="" d="M558,565.5, 788,246" style="stroke-width: 0.43; stroke-opacity: 0.99; stroke: rgb(80, 80, 80);"></path><path class="link" marker-end="" d="M558,565.5, 788,333" style="stroke-width: 0.43; stroke-opacity: 0.99; stroke: rgb(80, 80, 80);"></path><path class="link" marker-end="" d="M558,565.5, 788,420" style="stroke-width: 0.43; stroke-opacity: 0.99; stroke: rgb(80, 80, 80);"></path><path class="link" marker-end="" d="M558,565.5, 788,507" style="stroke-width: 0.43; stroke-opacity: 0.99; stroke: rgb(80, 80, 80);"></path><path class="link" marker-end="" d="M558,596.5, 788,246" style="stroke-width: 0.43; stroke-opacity: 0.99; stroke: rgb(80, 80, 80);"></path><path class="link" marker-end="" d="M558,596.5, 788,333" style="stroke-width: 0.43; stroke-opacity: 0.99; stroke: rgb(80, 80, 80);"></path><path class="link" marker-end="" d="M558,596.5, 788,420" style="stroke-width: 0.43; stroke-opacity: 0.99; stroke: rgb(80, 80, 80);"></path><path class="link" marker-end="" d="M558,596.5, 788,507" style="stroke-width: 0.43; stroke-opacity: 0.99; stroke: rgb(80, 80, 80);"></path><path class="link" marker-end="" d="M558,627.5, 788,246" style="stroke-width: 0.43; stroke-opacity: 0.99; stroke: rgb(80, 80, 80);"></path><path class="link" marker-end="" d="M558,627.5, 788,333" style="stroke-width: 0.43; stroke-opacity: 0.99; stroke: rgb(80, 80, 80);"></path><path class="link" marker-end="" d="M558,627.5, 788,420" style="stroke-width: 0.43; stroke-opacity: 0.99; stroke: rgb(80, 80, 80);"></path><path class="link" marker-end="" d="M558,627.5, 788,507" style="stroke-width: 0.43; stroke-opacity: 0.99; stroke: rgb(80, 80, 80);"></path><path class="link" marker-end="" d="M558,38.5, 788,159" style="stroke-width: 0.43; stroke-opacity: 0.99; stroke: rgb(80, 80, 80);"></path><path class="link" marker-end="" d="M558,69.5, 788,159" style="stroke-width: 0.43; stroke-opacity: 0.99; stroke: rgb(80, 80, 80);"></path><path class="link" marker-end="" d="M558,100.5, 788,159" style="stroke-width: 0.43; stroke-opacity: 0.99; stroke: rgb(80, 80, 80);"></path><path class="link" marker-end="" d="M558,131.5, 788,159" style="stroke-width: 0.43; stroke-opacity: 0.99; stroke: rgb(80, 80, 80);"></path><path class="link" marker-end="" d="M558,162.5, 788,159" style="stroke-width: 0.43; stroke-opacity: 0.99; stroke: rgb(80, 80, 80);"></path><path class="link" marker-end="" d="M558,193.5, 788,159" style="stroke-width: 0.43; stroke-opacity: 0.99; stroke: rgb(80, 80, 80);"></path><path class="link" marker-end="" d="M558,224.5, 788,159" style="stroke-width: 0.43; stroke-opacity: 0.99; stroke: rgb(80, 80, 80);"></path><path class="link" marker-end="" d="M558,255.5, 788,159" style="stroke-width: 0.43; stroke-opacity: 0.99; stroke: rgb(80, 80, 80);"></path><path class="link" marker-end="" d="M558,286.5, 788,159" style="stroke-width: 0.43; stroke-opacity: 0.99; stroke: rgb(80, 80, 80);"></path><path class="link" marker-end="" d="M558,317.5, 788,159" style="stroke-width: 0.43; stroke-opacity: 0.99; stroke: rgb(80, 80, 80);"></path><path class="link" marker-end="" d="M558,348.5, 788,159" style="stroke-width: 0.43; stroke-opacity: 0.99; stroke: rgb(80, 80, 80);"></path><path class="link" marker-end="" d="M558,379.5, 788,159" style="stroke-width: 0.43; stroke-opacity: 0.99; stroke: rgb(80, 80, 80);"></path><path class="link" marker-end="" d="M558,410.5, 788,159" style="stroke-width: 0.43; stroke-opacity: 0.99; stroke: rgb(80, 80, 80);"></path><path class="link" marker-end="" d="M558,441.5, 788,159" style="stroke-width: 0.43; stroke-opacity: 0.99; stroke: rgb(80, 80, 80);"></path><path class="link" marker-end="" d="M558,472.5, 788,159" style="stroke-width: 0.43; stroke-opacity: 0.99; stroke: rgb(80, 80, 80);"></path><path class="link" marker-end="" d="M558,503.5, 788,159" style="stroke-width: 0.43; stroke-opacity: 0.99; stroke: rgb(80, 80, 80);"></path><path class="link" marker-end="" d="M558,534.5, 788,159" style="stroke-width: 0.43; stroke-opacity: 0.99; stroke: rgb(80, 80, 80);"></path><path class="link" marker-end="" d="M558,565.5, 788,159" style="stroke-width: 0.43; stroke-opacity: 0.99; stroke: rgb(80, 80, 80);"></path><path class="link" marker-end="" d="M558,596.5, 788,159" style="stroke-width: 0.43; stroke-opacity: 0.99; stroke: rgb(80, 80, 80);"></path><path class="link" marker-end="" d="M558,627.5, 788,159" style="stroke-width: 0.43; stroke-opacity: 0.99; stroke: rgb(80, 80, 80);"></path><circle r="10.5" class="node" id="0_0" cx="558" cy="38.5" style="fill: rgb(255, 255, 255); stroke: rgb(51, 51, 51);"></circle><circle r="10.5" class="node" id="0_1" cx="558" cy="69.5" style="fill: rgb(255, 255, 255); stroke: rgb(51, 51, 51);"></circle><circle r="10.5" class="node" id="0_2" cx="558" cy="100.5" style="fill: rgb(255, 255, 255); stroke: rgb(51, 51, 51);"></circle><circle r="10.5" class="node" id="0_3" cx="558" cy="131.5" style="fill: rgb(255, 255, 255); stroke: rgb(51, 51, 51);"></circle><circle r="10.5" class="node" id="0_4" cx="558" cy="162.5" style="fill: rgb(255, 255, 255); stroke: rgb(51, 51, 51);"></circle><circle r="10.5" class="node" id="0_5" cx="558" cy="193.5" style="fill: rgb(255, 255, 255); stroke: rgb(51, 51, 51);"></circle><circle r="10.5" class="node" id="0_6" cx="558" cy="224.5" style="fill: rgb(255, 255, 255); stroke: rgb(51, 51, 51);"></circle><circle r="10.5" class="node" id="0_7" cx="558" cy="255.5" style="fill: rgb(255, 255, 255); stroke: rgb(51, 51, 51);"></circle><circle r="10.5" class="node" id="0_8" cx="558" cy="286.5" style="fill: rgb(255, 255, 255); stroke: rgb(51, 51, 51);"></circle><circle r="10.5" class="node" id="0_9" cx="558" cy="317.5" style="fill: rgb(255, 255, 255); stroke: rgb(51, 51, 51);"></circle><circle r="10.5" class="node" id="0_10" cx="558" cy="348.5" style="fill: rgb(255, 255, 255); stroke: rgb(51, 51, 51);"></circle><circle r="10.5" class="node" id="0_11" cx="558" cy="379.5" style="fill: rgb(255, 255, 255); stroke: rgb(51, 51, 51);"></circle><circle r="10.5" class="node" id="0_12" cx="558" cy="410.5" style="fill: rgb(255, 255, 255); stroke: rgb(51, 51, 51);"></circle><circle r="10.5" class="node" id="0_13" cx="558" cy="441.5" style="fill: rgb(255, 255, 255); stroke: rgb(51, 51, 51);"></circle><circle r="10.5" class="node" id="0_14" cx="558" cy="472.5" style="fill: rgb(255, 255, 255); stroke: rgb(51, 51, 51);"></circle><circle r="10.5" class="node" id="0_15" cx="558" cy="503.5" style="fill: rgb(255, 255, 255); stroke: rgb(51, 51, 51);"></circle><circle r="10.5" class="node" id="0_16" cx="558" cy="534.5" style="fill: rgb(255, 255, 255); stroke: rgb(51, 51, 51);"></circle><circle r="10.5" class="node" id="0_17" cx="558" cy="565.5" style="fill: rgb(255, 255, 255); stroke: rgb(51, 51, 51);"></circle><circle r="10.5" class="node" id="0_18" cx="558" cy="596.5" style="fill: rgb(255, 255, 255); stroke: rgb(51, 51, 51);"></circle><circle r="10.5" class="node" id="0_19" cx="558" cy="627.5" style="fill: rgb(255, 255, 255); stroke: rgb(51, 51, 51);"></circle><circle r="10.5" class="node" id="1_0" cx="788" cy="159" style="fill: rgb(255, 255, 255); stroke: rgb(51, 51, 51);"></circle><circle r="10.5" class="node" id="1_1" cx="788" cy="246" style="fill: rgb(255, 255, 255); stroke: rgb(51, 51, 51);"></circle><circle r="10.5" class="node" id="1_2" cx="788" cy="333" style="fill: rgb(255, 255, 255); stroke: rgb(51, 51, 51);"></circle><circle r="10.5" class="node" id="1_3" cx="788" cy="420" style="fill: rgb(255, 255, 255); stroke: rgb(51, 51, 51);"></circle><circle r="10.5" class="node" id="1_4" cx="788" cy="507" style="fill: rgb(255, 255, 255); stroke: rgb(51, 51, 51);"></circle><circle r="10.5" class="node" id="2_0" cx="1018" cy="268" style="fill: rgb(255, 255, 255); stroke: rgb(51, 51, 51);"></circle><circle r="10.5" class="node" id="2_1" cx="1018" cy="333" style="fill: rgb(255, 255, 255); stroke: rgb(51, 51, 51);"></circle><circle r="10.5" class="node" id="2_2" cx="1018" cy="398" style="fill: rgb(255, 255, 255); stroke: rgb(51, 51, 51);"></circle><text class="text" dy=".35em" x="523" y="667.5" style="font-size: 12px;">Input Layer ∈ ℝ²⁰</text><text class="text" dy=".35em" x="753" y="667.5" style="font-size: 12px;">Hidden Layer ∈ ℝ⁵</text><text class="text" dy=".35em" x="983" y="667.5" style="font-size: 12px;">Output Layer ∈ ℝ³</text></g><defs><marker id="arrow" viewBox="0 -5 10 10" markerWidth="7" markerHeight="7" orient="auto" refX="41.4"><path d="M0,-5L10,0L0,5" style="stroke: rgb(80, 80, 80); fill: none;"></path></marker></defs></svg>